<svg xmlns="http://www.w3.org/2000/svg" viewBox="0 0 566.93 309.9"><defs><style>.cls-1{fill:#e91c24;}.cls-2{fill:#53161c;}</style></defs><title>logo 1</title><g id="Layer_2" data-name="Layer 2"><g id="Layer_1-2" data-name="Layer 1"><path class="cls-1" d="M227.73,144.59c-1.52-.92-3.53-.18-4.86.74l-2.15,1.52c-1.08.76-2.29,1.31-3.54.55a2.78,2.78,0,0,1-.69-3.86,5.24,5.24,0,0,1,4.65-2.4l0-.26c-2.33-.11-4.13.55-5.37,2.59a4,4,0,0,0,1.18,5.63,4,4,0,0,0,4.13-.33l2.61-1.8c1.17-.8,2.34-1.4,3.68-.58s1.24,2.68.46,4a5.54,5.54,0,0,1-6.14,2.41l-.08.32c2.79.65,5.45,0,7-2.52,1.26-2.07,1.43-4.58-.85-6"/><path class="cls-1" d="M239.48,137.72a5.51,5.51,0,0,0,1.31-6.13l-.21.08c.53,1.9.39,4-1.38,5.25a4.28,4.28,0,0,1-3.74.23c-.84-1.08-1.76-3,.31-4.86l.58-.48c1.29-1.14,1.17-1.95.73-2.44-1.17-1.34-3.4-.7-4.55.32a5.14,5.14,0,0,0-.3,7.21c1.7,1.93,5.19,2.64,7.25.82m-7.12-7.55a2.74,2.74,0,0,1,3.82.54c.36.41-.12.83-.46,1.13a3.51,3.51,0,0,0-.7,5,7.77,7.77,0,0,1-1.84-1.54c-1.15-1.31-2.52-3.69-.82-5.18"/><path class="cls-1" d="M256.07,127.59a3.89,3.89,0,0,0,1.59-2.15l-.23,0c-.46,1.32-1.07,1.17-1.35.54s-1.16-2.48-2.35-5.08-3.45-2.63-5.62-1.23-2.48,3.07-1.73,3.49,1.09-.93,2.25-1.59c.91-.52,1.34-.3,1.57.11.62,1-1.32,3.09-1.86,4-.68,1.14-1.17,2.49-.27,3.83.67,1,1.81.94,2.87.46,2.06-.93,2.84-3.05,3.24-3.93.43,1,.8,2.12,1.89,1.62m-3.38.21c-.71.84-2.2,1.31-3,.53s-.63-2.07.24-3.71.85-2.55.47-3.15c-.49-.81-1.61-.56-2.66.06-.22.12-.48.18-.44-.06a2.55,2.55,0,0,1,1.5-1.84c1-.49,2.37-.26,3.37,1.93l1.89,4.13a8.59,8.59,0,0,1-1.36,2.11"/><path class="cls-1" d="M268.26,123.9a4.24,4.24,0,0,1-4.51-2.28l-.21.11a4.62,4.62,0,0,0,4.8,2.72l.17,0c2.65-.48,3.39-2,3.19-3.4s-1.65-2.06-2.74-2.32l-2-.49c-1.14-.26-1.83-.77-2-1.63a2.08,2.08,0,0,1,1.85-2.13,3.77,3.77,0,0,1,2.9.75,3.81,3.81,0,0,1,.81.72l.16-.18a4.39,4.39,0,0,0-4.3-1.73l-.22,0a3,3,0,0,0-2.61,3.35,3,3,0,0,0,2.21,2.19l2.35.6c1,.32,2,.73,2.19,1.61s-.54,1.87-2.08,2.1"/><path class="cls-1" d="M290.25,119.6a5,5,0,0,0-4.34-5.68,5.5,5.5,0,0,0-6.1,4.74,5,5,0,0,0,4.3,5.73,5.49,5.49,0,0,0,6.14-4.79m-8.6-1.16c.23-1.65,1.35-4.66,3.83-4.32,2.67.37,3.31,3.54,2.94,5.74-.3,1.9-1.35,4.68-3.83,4.33-2.65-.36-3.24-3.56-2.94-5.75"/><path class="cls-1" d="M299.74,128.56c-.34-.2-1.05-.62-.85-1l1.4-2.89c.7-1.28,4-4.13,5.74-3.3,1.11.54.57,2.09-.47,4.24l-2,4.2c-.2.42-.91.16-1.35,0l-.08.17,3.73,1.79.08-.16c-.34-.21-1.05-.63-.85-1.05l2-4.18c1.18-2.46,2.24-4.48-.13-5.63-1.72-.83-4.95,1.27-6.18,2.92l2.25-4.67-2.63-1.27-.08.17c.39.26,1.05.61.85,1l-3.81,7.9c-.2.42-.91.16-1.35,0l-.08.17,3.72,1.79Z"/><path class="cls-1" d="M321.08,139.72l-.1-.2c-1.84.72-3.94.79-5.37-.84A4.27,4.27,0,0,1,315,135c1-1,2.83-2.07,4.86-.19l.54.52c1.26,1.17,2.06,1,2.5.49,1.21-1.3.35-3.45-.77-4.49a5.13,5.13,0,0,0-7.21.43c-1.75,1.88-2.1,5.42-.09,7.29a5.53,5.53,0,0,0,6.24.68m-4.51-7.19c1.18-1.27,3.41-2.88,5.07-1.34a2.74,2.74,0,0,1-.16,3.86c-.37.39-.83,0-1.16-.34a3.52,3.52,0,0,0-5.1-.2,8,8,0,0,1,1.35-2"/><path class="cls-1" d="M328.07,155.45c-.16-.27,0-.57.35-.76l11.32-6.54-1.47-2.54-.16.09c.19.43.53,1.1.12,1.33l-7.33,4.24c2-1.56,3.75-3.87,2.69-5.7-1.24-2.15-4.19-1.75-6.45-.44s-3.92,3.47-2.8,5.39a4.29,4.29,0,0,0,4.39,2l-1.05.61c-.73.42-1.36.89-.89,1.72a3.61,3.61,0,0,0,2.29,1.38l0-.23a1.5,1.5,0,0,1-1-.55m-2.61-4.62c-.77-1.33.4-2.94,2.56-4.18s4.13-1.63,5,0-1.64,4.36-3.63,5.51l-.39.22c-1.39,0-2.75-.07-3.58-1.51"/><path class="cls-1" d="M245.23,231.84l.12-.14-2.13-1.91-.12.14c.2.22.86.94.37,1.29l-5.92,4.36c-.42.3-.92.38-1.08.23s-.47-.32.06-1.38l2.26-4.19c.78-1.53.69-2.39.12-2.9s-1.44-.27-3,.88l-3.6,2.62c-.41.32-.91.4-1.09.23s-.46-.32.08-1.37l3.48-6.45c.29-.55,1,.11,1.3.29l.1-.11L233,220.56l-.13.14c.31.38.75.93.56,1.33L230,228.41c-.94,1.77-.78,2.67-.21,3.19s1.54.3,2.86-.65l3.47-2.54c.38-.29.94-.69,1.28-.39s.13.88-.1,1.31l-2,3.81c-1,1.76-.77,2.68-.22,3.18s1.55.31,2.86-.65l5.8-4.26c.46-.35,1.15.15,1.55.43"/><path class="cls-1" d="M250.38,234l-2.56-1.41-.09.16c.39.28,1,.69.79,1.1l-4.23,7.66c-.24.43-.91.1-1.35-.08l-.09.17,3.62,2,.09-.16c-.32-.24-1-.67-.78-1.09Z"/><path class="cls-1" d="M251.54,230.12a1.13,1.13,0,0,0-1.53.44,1.1,1.1,0,0,0,.44,1.52,1.12,1.12,0,0,0,1.53-.44,1.13,1.13,0,0,0-.44-1.52"/><path class="cls-1" d="M258.12,234.72l-1.34.47-2.57,1.09,1.32.48-2.66,7.35a2,2,0,0,0,1.18,2.88c1.62.59,3.66-.76,3.86-.93l-.12-.16a3.18,3.18,0,0,1-2.68.54c-1-.35-.77-1.28-.51-2l2.57-7.08,3.38,1.22.08-.23-3.37-1.22Z"/><path class="cls-1" d="M271.62,250l.67-4.82c.36-2.58.65-4.75-1.8-5.09-2-.27-4.42,2.71-5.13,4.82l1.32-9.43-2.89-.4,0,.18c.46.12,1.19.27,1.13.73l-1.79,12.82c-.06.46-.82.43-1.28.4l0,.19,4.09.57,0-.19c-.38-.09-1.19-.27-1.12-.74l.37-2.65c.31-2.28,2.86-5.68,4.53-5.44,1.22.17,1.24,1.81.93,3.9l-.68,4.91c-.07.48-.82.42-1.29.41l0,.18,4.09.57,0-.18c-.39-.11-1.2-.26-1.13-.74"/><path class="cls-1" d="M289.54,248.69,287,235.26l-2.87.55,0,.19c.47,0,1.22-.1,1.3.34L287.87,249c.09.46-.63.68-1.08.82l0,.18,4.06-.77,0-.19c-.51,0-1.22.1-1.31-.36"/><path class="cls-1" d="M297,236.35a5.49,5.49,0,0,0-3,7.13,5,5,0,0,0,6.57,2.87,5.49,5.49,0,0,0,3-7.2,5,5,0,0,0-6.58-2.8m3.93,9.59c-2.49,1-4.58-1.5-5.4-3.55-.61-1.55-1.13-4.73,1.2-5.65,2.5-1,4.62,1.44,5.39,3.53.68,1.81,1.14,4.74-1.19,5.67"/><path class="cls-1" d="M312.34,228.71c-.16-.55.41-1.08.77-1.41l-.11-.15-2.34,1.64.11.16c.26-.15,1.19-.65,1.34-.08l2.13,7.3c.16.53.13.78-.17,1s-.51.09-.92-.2l-6.33-4.49c-.5-.36.36-1,.58-1.16l-.11-.15-3.61,2.53.11.16c.44-.22,1-.52,1.42-.25l6.36,4.47c1.59,1.12,2.15,1.21,2.78.77s.65-1,.12-2.83Z"/><path class="cls-1" d="M325.72,223.09c.73,1.83.82,3.94-.8,5.37a4.27,4.27,0,0,1-3.69.64c-1-1-2.09-2.82-.22-4.87l.51-.54c1.16-1.27,1-2.07.47-2.51-1.31-1.19-3.45-.31-4.49.82a5.13,5.13,0,0,0,.49,7.2c1.89,1.73,5.44,2.06,7.3,0a5.52,5.52,0,0,0,.62-6.24Zm-7,4.46c-1.28-1.17-2.91-3.38-1.38-5.06a2.74,2.74,0,0,1,3.86.13c.4.37,0,.84-.33,1.17a3.51,3.51,0,0,0-.15,5.1,7.87,7.87,0,0,1-2-1.34"/><path class="cls-1" d="M337.22,175.82a11.55,11.55,0,0,1-6.74,6.74,11.55,11.55,0,0,1,6.74,6.74,11.55,11.55,0,0,1,6.74-6.74,11.55,11.55,0,0,1-6.74-6.74"/><path class="cls-1" d="M215.64,175.82a11.5,11.5,0,0,1-6.74,6.74,11.5,11.5,0,0,1,6.74,6.74,11.54,11.54,0,0,1,6.75-6.74,11.54,11.54,0,0,1-6.75-6.74"/><path class="cls-2" d="M566.86,189.91H477.48c-14.32,0-30.18,1.55-41.67-8.62-5.17-4.59-13.92-5.66-19.44-.9-2.75,2.37-5.13,5.34-7.64,8s-6.72,8-9.89,3.6c-1.55-2.15-1.56-6.24-2-8.72q-1.29-6.84-2.6-13.66c-.37-1.91-1-8.69-4.13-7.45-1.2.47-1.43,1.73-1.71,2.81-.49,1.84-1,3.69-1.45,5.53q-1.7,6.45-3.38,12.89c-.27,1.06-.26,2.2-1.13,2.55s-5.22.29-5.68-.23c-.65-.74-.83-2.84-1.11-3.79-.66-2.22-1.31-4.44-2-6.67l-3.54-12c-.27-.91-.43-2.18-1.46-2.55-2.56-.91-2.36,3.22-2.56,4.65-1.29,9-4.62,18-11.2,24.48-9.3,9.15-23.63,11.21-36.07,9.15a32.44,32.44,0,0,1-5.72-1.54,69.35,69.35,0,0,0,3.4-7.5c3-7.84,2.79-17,2.16-25.25-.58-7.69-6.71-13.38-14.67-11.76-6.06,1.22-10,6-11.17,11.94a37.42,37.42,0,0,0-.63,7c-.05,1.06,0,3.19,0,5,0,.89,0,1.78,0,2.66a30.84,30.84,0,0,0,1.32,10.11,35.22,35.22,0,0,0,7,11.79c-7.53,6.61-17.2,10.4-27.37,8.8-9.1-1.44-17-6.58-23.41-13.07l.71-.51A31.68,31.68,0,0,0,260,184.38,26.35,26.35,0,0,0,262,173.45c0-4.24.84-9.79-.92-13.85-3.26-7.48-13.63-8.86-19.68-4.22-7.42,5.68-6.34,15.13-6.26,23.44a38.27,38.27,0,0,0,1.15,10.88,21.29,21.29,0,0,0,1.4,3.38l-35.81,24.71L152.22,252l-44.28,30.56c-5.43,3.74-11.06,7.33-16.47,11.16,13.19-35.45,31.46-68.91,52.47-100.31,22.47-33.57,48.17-64.95,75.79-94.4a895.11,895.11,0,0,1,65.91-63.45c6.77-5.87,13.63-11.65,20.61-17.27A59.56,59.56,0,0,0,312,13.81a2.4,2.4,0,0,0,.6-1,.65.65,0,0,1,.1.15v-.61a10.5,10.5,0,0,0,0-1.19c0-2.49,0-5,0-7.46,0-.6.34-2.94-.23-3.48s-3.18,0-4.05.12L304,.79q-4.38.44-8.76,1A387.33,387.33,0,0,0,176.82,35.34,380.58,380.58,0,0,0,91.1,90.93a404,404,0,0,0-56.43,59.39A365.62,365.62,0,0,0,5,194.65C3.8,196.84,2.6,199,1.44,201.27a14.3,14.3,0,0,0-1.28,2.49,15.4,15.4,0,0,0-.06,3.78q0,3.36,0,6.72c0,.54,0,1.07.05,1.49v.31l0-.07c.13.77.5,1,1.58,0,3.51-3.21,6.73-6.8,10.13-10.13q7.8-7.64,15.78-15.08C56.38,164.1,87,137.94,121.3,118.69a175.57,175.57,0,0,1,23.93-11.34c.39-.15.06-5.58.06-6.15s-.38-6-.06-6.16c-25.4,9.57-48.26,25.77-69.54,42.32a735.81,735.81,0,0,0-57.92,50.55c-1.05,1-2.07,2-3.11,3.05.72-1.13,1.45-2.26,2.19-3.38A402.43,402.43,0,0,1,111,87.28a376,376,0,0,1,81.18-46.43,389.36,389.36,0,0,1,104.5-27q-3.84,3.21-7.63,6.47-22.67,19.45-44,40.45c-18.8,18.48-36.82,37.77-53.84,57.9a684.25,684.25,0,0,0-53.85,72.45c-16.91,26.39-31.79,54.18-43.28,83.36-2.83,7.2-5.9,14.57-7.91,22.05a8.43,8.43,0,0,0-.2.9.54.54,0,0,1-.06-.11v.58a45.08,45.08,0,0,0-.06,5.57c0,.54-.39,6.18.13,6.37.27.09.32-.17.53-.21.78-.17,1.86-1.29,2.51-1.74l5-3.42L131,279l51.12-35.28,46.15-31.85c4.93-3.4,10-6.7,15-10.12a63.71,63.71,0,0,0,12.37,12.77c9.53,7.26,21.72,10.63,33.26,6.33,7.21-2.68,13.27-7.8,18.1-14,5.65,3.59,12.38,4.83,19,5,12.82.3,25.54-3.76,33-14.72a42.58,42.58,0,0,0,5.87-13.44,58.08,58.08,0,0,0,1.27-6.54c.18-1.36.64-6.24,3.11-3.8.69.68.86,2.2,1.12,3.07l1.85,6.26,4,13.56c.55,1.86.17,2.07,2.29,2,1.05,0,2.94.33,3.9-.06.77-.31.3,0,.68-.8.73-1.49.93-3.56,1.35-5.17.64-2.46,1.29-4.92,1.93-7.38.57-2.17,1.14-4.33,1.7-6.5a8.83,8.83,0,0,1,1-3.08c3.09-4.17,4.66,4.28,5,6.18q1.41,7.41,2.83,14.83c.49,2.59.53,7.82,3.3,9.17,3.77,1.84,7.78-4.07,10.17-6.56,3.07-3.2,5.76-6.89,10.07-8.41a15.33,15.33,0,0,1,11.13.4c2.94,1.28,4.94,3.69,7.53,5.46,5.93,4.07,13.32,5.49,20.38,5.81,13,.59,26.07.07,39.05.07h68.28c.09,0,.09-12.3,0-12.3M235.17,170.38c0-.88,0-1.47,0,0m.76,5.07a15.94,15.94,0,0,1,2.39-4.68,14.75,14.75,0,0,1,7.16-5.29,12.94,12.94,0,0,1,15,5.63,26.52,26.52,0,0,1-2.14,4.26,33,33,0,0,1-7.63,8.73c-.42.31-.86.59-1.29.88l-6.23,4.3c-.1-.12-.19-.24-.28-.37-3.18-4.32-5.71-8.49-6.93-13.46m57.2.26a18.09,18.09,0,0,1,.9-2.56,13.72,13.72,0,0,1,5.06-6c5.5-3.53,13.42-2.87,17.33,2.7a11.4,11.4,0,0,1,1.47,2.94,43.22,43.22,0,0,1-3,8.48,69.92,69.92,0,0,1-7.9,13.12,31.52,31.52,0,0,1-13.87-18.64"/><path class="cls-2" d="M110.85,65.65c-17.46-15.4,4.9-21,17.37-27.07C137.06,35,139,46,140,52.71l4.21-2a39.24,39.24,0,0,0-.55-8.29C139.16,19.26,85,50.89,110.85,65.65"/></g></g></svg>