<svg xmlns="http://www.w3.org/2000/svg" viewBox="0 0 432.3 238.79"><defs><style>.cls-1{fill:#5a1e1d;}.cls-2{fill:#e30613;}</style></defs><title>logo2</title><g id="Layer_2" data-name="Layer 2"><g id="Layer_1-2" data-name="Layer 1"><path class="cls-1" d="M363.19,143.55l-3.84,0c-1.29,0-2.59,0-3.88,0-7.49,0-16-.47-22.27-6a14.62,14.62,0,0,0-9.59-3.59,12.18,12.18,0,0,0-8.09,2.89,47.51,47.51,0,0,0-4.11,4.17c-.6.68-1.21,1.34-1.82,2l-.61.65c-.6.65-2.43,2.62-3.09,2.65a1.16,1.16,0,0,1-.3-.32,10.6,10.6,0,0,1-.88-3.82c-.08-.67-.16-1.3-.27-1.89l-2-10.32c0-.15-.06-.36-.1-.59-.39-2.45-1.1-7-4.7-7a3.78,3.78,0,0,0-1.38.28,4.49,4.49,0,0,0-2.61,3.47L290,140.28c0,.14-.07.27-.1.4h-.34c-.33,0-.61,0-.85,0,0-.18-.07-.37-.1-.51a9.57,9.57,0,0,0-.24-1.05L284.2,125a2.68,2.68,0,0,1-.07-.27,4.12,4.12,0,0,0-2.44-3.16,3.89,3.89,0,0,0-1.28-.23c-3.25,0-3.53,3.81-3.63,5.06,0,.2,0,.37,0,.51-.73,5.05-2.67,12.15-7.81,17.2-4.47,4.4-11.21,6.82-19,6.82a39.37,39.37,0,0,1-6.3-.52c-.49-.08-1-.19-1.48-.31q.79-1.73,1.47-3.48c2.43-6.33,2.26-13.7,1.78-20.06s-5.26-11.2-11.33-11.2a12.25,12.25,0,0,0-2.47.25c-5.26,1.06-9.08,5.1-10.22,10.8a29.59,29.59,0,0,0-.52,5.63c0,1,0,2.71,0,3.91,0,.66,0,1.32,0,2a26,26,0,0,0,1.12,8.37,28.42,28.42,0,0,0,4.22,7.85,23.29,23.29,0,0,1-14,5,20,20,0,0,1-3.18-.25c-5.05-.8-10-3.32-14.6-7.49a26.44,26.44,0,0,0,6.4-8.8,22.38,22.38,0,0,0,1.63-9.16c0-.69,0-1.43.07-2.2.14-3,.29-6.33-1-9.18a11.33,11.33,0,0,0-10.72-6.58,12.53,12.53,0,0,0-7.61,2.49c-5.93,4.54-5.78,11.46-5.65,17.56,0,.67,0,1.33,0,2a31.2,31.2,0,0,0,1,8.86c.12.36.24.73.39,1.1L82.57,214c-1.78,1.22-3.62,2.45-5.4,3.64l-1,.68c9-22.45,21.35-45.49,36.81-68.58A559.74,559.74,0,0,1,170,78.68a675.76,675.76,0,0,1,49.65-47.8c5.47-4.75,10.54-9,15.51-13,.45-.36.94-.71,1.44-1.07a22.28,22.28,0,0,0,3.09-2.54,4,4,0,0,0,1-1.61l-1.05-.34,1.23-.24v-.34a8,8,0,0,0,0-.85v-.14c0-1.89,0-3.78,0-5.65,0-.08,0-.19,0-.31.1-1.3.21-2.91-.89-4A3.3,3.3,0,0,0,237.7,0a12.36,12.36,0,0,0-2,.22l-.48.07-3.38.32c-2.22.22-4.47.46-6.67.73A293.67,293.67,0,0,0,135,26.93a289.46,289.46,0,0,0-65.3,42.35,307.89,307.89,0,0,0-43,45.22A278.41,278.41,0,0,0,4.1,148.29c-1,1.76-1.9,3.42-2.76,5.07l-.26.46a7.88,7.88,0,0,0-.87,1.84A8,8,0,0,0,0,158.42c0,.25,0,.5,0,.71,0,1.71,0,3.41,0,5.11v.17c0,.35,0,.7,0,1,0,0,0,.08,0,.11h0l.79.2-.78.13a2.64,2.64,0,0,0,2.61,2.41,3.49,3.49,0,0,0,2.34-1.08c1.66-1.52,3.24-3.14,4.77-4.72,1-1,2-2,2.95-3,3.86-3.79,7.86-7.61,11.89-11.36C44.44,129.82,68.21,109,95.07,94a131.09,131.09,0,0,1,17.78-8.43c1.76-.66,1.7-2.18,1.53-6.23,0-.26,0-.46,0-.54s0-.44,0-.89c0-.69-.19-3.38-.14-3.87l-.24-3.17L111.25,72C91.47,79.44,74,91.92,58.09,104.31c-10,7.8-20.09,16.3-30.48,25.74q7.74-10.29,16.45-20a299.61,299.61,0,0,1,43.46-40A282.53,282.53,0,0,1,148.4,35.23,290.81,290.81,0,0,1,219.2,16C208,25.6,196.83,35.9,185.93,46.61c-14.55,14.31-28.29,29.08-40.84,43.92a523.7,523.7,0,0,0-40.89,55A369.2,369.2,0,0,0,71.29,209l-.86,2.18a135.09,135.09,0,0,0-5.2,14.72c-.08.29-.14.59-.2.89l.84.15L65,227v.31a22.68,22.68,0,0,0-.06,3.18c0,.39,0,.78,0,1.14,0,.08,0,.24,0,.46-.19,3.88-.28,5.82,1.62,6.51a2.5,2.5,0,0,0,.85.15,2.38,2.38,0,0,0,1.32-.4,6.69,6.69,0,0,0,1.82-1.2c.14-.12.26-.22.36-.29l105.26-72.64c1.85-1.28,3.72-2.53,5.59-3.79l3.93-2.65a48.85,48.85,0,0,0,8.47,8.38,31.06,31.06,0,0,0,18.52,6.68,25,25,0,0,0,8.78-1.58,33,33,0,0,0,13.43-9.76,31.07,31.07,0,0,0,13.78,3.12h1c11.33,0,20.51-4.31,25.84-12.13a34.37,34.37,0,0,0,4.77-10.87c.22-.87.42-1.77.59-2.68l3.61,12.24c.06.2.1.37.14.51.46,1.89,1.48,2.65,3.5,2.65h.32c.19,0,.42,0,.66,0,.4,0,.83.06,1.23.06a5,5,0,0,0,1.84-.3l.16-.06a2.37,2.37,0,0,0,1.58-1.72,13,13,0,0,0,.9-3.13c.08-.4.16-.79.25-1.14l2.57-9.84c.11.44.22.94.33,1.54l2.14,11.21c.07.35.12.77.18,1.23.31,2.37.78,6,3.55,7.31a4.78,4.78,0,0,0,2.12.5c3,0,5.47-2.8,7.24-4.84.35-.41.67-.78,1-1.08.45-.47.89-.95,1.33-1.44,1.69-1.85,3.29-3.6,5.4-4.35a9.24,9.24,0,0,1,6.75.25,12.74,12.74,0,0,1,3.09,2.16,27.91,27.91,0,0,0,2.23,1.75c4.24,2.91,9.67,4.48,16.59,4.79l82.77,0V143.55ZM239.6,131.93a6.74,6.74,0,0,1,.59,1.06,30.84,30.84,0,0,1-1.94,5.3,54.14,54.14,0,0,1-4.44,7.76,21.6,21.6,0,0,1-7.61-10.94c.12-.36.25-.71.39-1a8.14,8.14,0,0,1,3-3.58A8.27,8.27,0,0,1,234,129.2a6.7,6.7,0,0,1,5.59,2.73M183,135a9.91,9.91,0,0,1,1.26-2.28,8.88,8.88,0,0,1,4.3-3.19,7.08,7.08,0,0,1,2.2-.35,7.57,7.57,0,0,1,5.82,2.7c-.29.6-.61,1.19-1,1.78a22.42,22.42,0,0,1-5.23,6c-.16.13-.34.24-.52.36l-.35.24-2.89,2A25,25,0,0,1,183,135"/><path class="cls-1" d="M81.27,48.79c-5.79-3.31-6.1-7.42-5.33-10.29C78,30.62,90.14,23.61,98.22,23.61c4.92,0,8.1,2.42,8.94,6.82a56.48,56.48,0,0,1,.74,9l0,.45L103.37,42l-.15-1c-.82-5.49-2.38-13.14-6-13.14a5.84,5.84,0,0,0-2.16.49c-1.4.69-3,1.37-4.66,2.09-5.7,2.47-12.16,5.26-12.8,9.25-.36,2.24,1.17,4.88,4.54,7.86l5.55,4.89Z"/><path class="cls-1" d="M81.64,48.13c-13.2-11.64,3.71-15.84,13.14-20.46,6.68-2.74,8.43,8.15,9.19,13.24l3.18-1.5a58.07,58.07,0,0,0-.73-8.83C103.05,13.06,62.12,37,81.64,48.13"/><path class="cls-2" d="M256.84,133a8.71,8.71,0,0,1-5.09,5.1,8.7,8.7,0,0,1,5.09,5.09,8.71,8.71,0,0,1,5.1-5.09,8.73,8.73,0,0,1-5.1-5.1"/><path class="cls-2" d="M164.94,133a8.71,8.71,0,0,1-5.09,5.1,8.7,8.7,0,0,1,5.09,5.09,8.71,8.71,0,0,1,5.1-5.09,8.73,8.73,0,0,1-5.1-5.1"/><path class="cls-2" d="M168.25,117.34c.24-.34.66-.8.43-1.19l-5.67-8.6c-.88-1.34-.56-1.79-.26-2.1.65-.66,1.35-.71,2.91.29l6.23,4c.65.42,1,.53,1.13.37s0-.55-.16-.8l-4.57-7.1c-.88-1.34-.56-1.79-.27-2.09.66-.67,1.36-.7,2.93.27l8.18,5.21c.32.21.72-.1,1.17-.46l.12.12L177.74,108l-.13-.12c.15-.22.72-.77.29-1l-8.05-5.18c-.48-.32-1.39-.88-1.68-.58s0,.59.28,1l4.75,7.34c.64,1,.61,1.55.22,2s-1.34.45-2.69-.41l-6.15-4c-.48-.32-1.38-.88-1.68-.58s0,.59.28,1l5.68,8.61c.24.33.91-.24,1.12-.4l.12.12-1.73,1.76Z"/><path class="cls-2" d="M182.87,93.94c1.16-.62,3.14-.72,3.86.62.26.49.21,1.2-1.09,1.89l-.57.29a2.78,2.78,0,0,0-1.21,4,3.66,3.66,0,0,0,3.16.54c1.71-.7,2.24-2.42,2.18-4.11l.18,0a4.71,4.71,0,0,1-2.29,4.85c-2.07,1.11-4.84-.17-5.88-2.1a4.4,4.4,0,0,1,1.66-6m-.56,4.84a6.89,6.89,0,0,0,1.23,1.65,3,3,0,0,1,1.57-4.08c.34-.18.82-.44.6-.85a2.35,2.35,0,0,0-3.08-1.2c-1.7.91-1,3.17-.32,4.48"/><path class="cls-2" d="M202.16,87.59c1.82-.39,2.15,1.54,2.64,3.82l.83,3.88c.08.39.79.31,1.12.27l0,.16-3.45.74,0-.16c.39-.11,1-.31.92-.7l-.84-3.9c-.43-2-.61-3.4-1.51-3.21-1.39.3-1.74,3.93-1.66,5l.61,2.87c.09.39.77.31,1.11.27l0,.15-3.44.74,0-.16c.37-.11,1-.3.89-.69l-.83-3.9c-.43-2-.62-3.4-1.51-3.21-1.39.3-1.74,3.92-1.66,5l.61,2.86c.08.39.79.31,1.12.27l0,.16-3.45.74,0-.16c.39-.11,1-.31.92-.7L193,90.33c-.08-.39-.71-.28-1.12-.25l0-.15,2.44-.53.92,4.27c0-1.76.53-4.69,2.14-5,1.83-.39,2.16,1.53,2.65,3.82l0,.19c0-1.76.53-4.7,2.14-5"/><path class="cls-2" d="M210.54,91.57a4.71,4.71,0,0,1,5-4.38,4.24,4.24,0,0,1,4,4.61,4.7,4.7,0,0,1-5,4.43,4.32,4.32,0,0,1-4-4.66M214.93,96c2.14.15,2.88-2.28,3-3.92.18-1.9-.53-4.57-2.83-4.73-2.14-.16-2.93,2.48-3,3.9-.14,1.88.54,4.58,2.82,4.75"/><path class="cls-2" d="M222.7,97.1c.4.08,1,.23,1.14-.17l1.59-5.2a9.32,9.32,0,0,0,.49-2.68l1.55.47a4.36,4.36,0,0,1-.29,1.52l-.32,1-.17.55c.66-1.17,2.23-2.68,3.73-2.22l.11,0a1.28,1.28,0,0,1,1,1.39c-.08.26-.37.61-.6.53s-.27-.66-1.4-1c-.93-.28-2.44,0-3.35,3l-.92,3c-.13.4.54.64.85.78l-.05.15-3.38-1Z"/><path class="cls-2" d="M239.09,94.25l-3.76,7.23c-.19.37.42.72.7.92l-.08.14-3.13-1.63.07-.14c.38.14,1,.4,1.15,0l3.46-6.65c.18-.35-.36-.69-.7-.92l.08-.14Zm-.39-3a1,1,0,0,1,1.3-.4,1,1,0,1,1-1.3.4"/><path class="cls-2" d="M248.24,100c1,.82,1.92,2.59,1,3.79-.35.44-1,.66-2.18-.25l-.49-.41a2.79,2.79,0,0,0-4.13.49,3.65,3.65,0,0,0,.76,3.12c1.33,1.29,3.12,1.08,4.64.35l.1.15a4.74,4.74,0,0,1-5.37-.14c-1.84-1.46-1.78-4.51-.43-6.23a4.4,4.4,0,0,1,6.12-.87m-4.66,1.42a6.59,6.59,0,0,0-1,1.79,3,3,0,0,1,4.37-.19c.3.24.72.57,1,.21a2.34,2.34,0,0,0-.13-3.3c-1.52-1.2-3.31.32-4.23,1.49"/><path class="cls-2" d="M250.23,110.11l.17.11a3.63,3.63,0,0,0,.33,4.3,1.8,1.8,0,0,0,2.45.6c.57-.52.43-1.43.22-2.31l-.6-2a2.54,2.54,0,0,1,.63-2.59,2.6,2.6,0,0,1,3.6.44l.12.14a3.76,3.76,0,0,1,.63,3.92l-.2,0a3.55,3.55,0,0,0-.57-3.37,1.77,1.77,0,0,0-2.37-.41,1.87,1.87,0,0,0-.32,2.17l.51,1.66a2.91,2.91,0,0,1-.49,3c-.92.76-2.37.89-3.89-.84l-.09-.11a4,4,0,0,1-.13-4.72"/><path class="cls-2" d="M175.1,170.94l.12-.11,2.52,2.66-.09.09c-.2-.16-.81-.78-1.09-.34l-3.4,5.28c-.54.85-.29,1-.16,1.16s.58.12.94-.12l3.25-2c1.41-.88,2.19-1,2.63-.55s.46,1.21-.31,2.47l-2.21,3.42c-.52.86-.28,1-.14,1.17s.56.1.94-.12l5.34-3.32c.44-.26-.08-.92-.23-1.13l.12-.11,1.68,1.78-.12.11c-.32-.27-.87-.74-1.28-.48L178.37,184c-1.17.74-2,.84-2.48.37s-.53-1.26.4-2.7l2-3.11c.23-.34.42-.84.17-1.11s-.77,0-1.12.25l-3.13,1.93c-1.18.72-2,.84-2.47.36s-.54-1.26.39-2.71l3.35-5.2c.19-.34-.15-.83-.39-1.18"/><path class="cls-2" d="M188.32,182.78l-4.48,6.8c-.23.35.34.76.6,1l-.09.13-2.95-1.94.09-.13c.36.18.91.5,1.14.15l4.11-6.25c.22-.34-.29-.73-.6-1l.09-.13Zm-.09-3a1,1,0,0,1,1.6,1.06,1,1,0,0,1-1.6-1.06"/><path class="cls-2" d="M192.59,183.59l1.18-.3-.93,2,2.79,1.3-.09.19-2.78-1.31L190,191.3c-.29.6-.51,1.38.27,1.75a2.69,2.69,0,0,0,2.33-.25l.09.14c-.18.13-2,1.12-3.36.5a1.7,1.7,0,0,1-.79-2.54l2.83-6.06-1.09-.51Z"/><path class="cls-2" d="M199.91,184.23l-1.84,7.93c.76-1.75,3.08-4.1,4.73-3.72,2.06.48,1.65,2.31,1.15,4.47L203,197c-.1.41.58.6.9.72l0,.16-3.44-.8,0-.16c.4.05,1,.16,1.12-.25l1-4.12c.42-1.76.54-3.16-.49-3.4-1.41-.33-3.84,2.38-4.28,4.29l-.52,2.23c-.09.39.58.61.9.72l0,.15-3.44-.8,0-.15c.39.06,1,.14,1.12-.25l2.5-10.78c.09-.39-.52-.57-.9-.7l0-.16Z"/><path class="cls-2" d="M215,197.3l-.87-7.89-.92.1,0-.2.92-.11h0a4.24,4.24,0,0,1,2.38-4.54,2.92,2.92,0,0,1,.92-.25c1.26-.14,2.56.44,2.39,1.7,0,.13-.32.89-.68.86s-.11-1-.81-1.73a1.62,1.62,0,0,0-1.35-.49,1.92,1.92,0,0,0-.56.16c-1.16.53-1.06,2.14-.84,4.13v0l2.33-.26,0,.2-2.34.26.87,7.89c0,.4.91.36,1.25.36v.16l-3.67.4,0-.16c.4-.07,1-.21,1-.6"/><path class="cls-2" d="M220.39,193.1a4.71,4.71,0,0,1,3-5.88,4.26,4.26,0,0,1,5.43,2.84,4.71,4.71,0,0,1-3,5.93,4.31,4.31,0,0,1-5.41-2.89m5.71,2.57c2.05-.63,1.85-3.17,1.4-4.75-.51-1.84-2.15-4.06-4.35-3.38s-1.83,3.37-1.41,4.73c.56,1.8,2.17,4.07,4.36,3.4"/><path class="cls-2" d="M231.32,189.4A4.71,4.71,0,0,1,232.8,183a4.25,4.25,0,0,1,6,1.42,4.71,4.71,0,0,1-1.49,6.5,4.32,4.32,0,0,1-6-1.48m6.16,1.09c1.84-1.12,1-3.53.2-5-1-1.65-3.08-3.41-5.05-2.21s-.94,3.71-.2,4.93c1,1.61,3.1,3.41,5,2.23"/><path class="cls-2" d="M240.09,177.45c1.27-1.29,3.59-.33,5.32.93l-5.17-5.09c-.28-.28-.75.15-1.07.4l-.11-.11,1.76-1.79,8,7.85c.24.24.52.31.71.12a1.29,1.29,0,0,0,.22-1l.19,0a3.14,3.14,0,0,1-.61,2.2c-.58.58-1.11.17-1.63-.34l-.74-.73a3.68,3.68,0,0,1-.65,4.08c-1.33,1.35-3.5.48-5.08-1.08s-2.6-3.91-1.11-5.43m2.16,4.35c1.52,1.5,3.11,2.1,4,1.16s.75-2.15.44-3.29l-.28-.27c-1.4-1.38-4.36-2.78-5.37-1.75s-.33,2.64,1.18,4.15"/></g></g></svg>