<svg xmlns="http://www.w3.org/2000/svg" viewBox="0 0 152 83.08724"><defs><style>.cls-1{fill:#ed1c24;}.cls-2{fill:#53161c;}</style></defs><g id="Layer_2" data-name="Layer 2"><g id="Layer_1-2" data-name="Layer 1"><path class="cls-1" d="M61.0567,38.7662a1.25641,1.25641,0,0,0-1.30177.19866l-.5765.406a.82569.82569,0,0,1-.94884.14963.74586.74586,0,0,1-.18512-1.03509,1.40036,1.40036,0,0,1,1.24483-.64455l-.00985-.0706a1.44485,1.44485,0,0,0-1.44046.69561,1.06753,1.06753,0,0,0,.31842,1.5099,1.0833,1.0833,0,0,0,1.1058-.08913l.70017-.48341c.31278-.21444.6279-.37472.98753-.15537a.73743.73743,0,0,1,.12215,1.06128,1.485,1.485,0,0,1-1.6456.64681l-.023.08586a1.614,1.614,0,0,0,1.8797-.67436A1.08189,1.08189,0,0,0,61.0567,38.7662Z"/><path class="cls-1" d="M64.2082,36.92452a1.47794,1.47794,0,0,0,.34935-1.644l-.05459.02138a1.227,1.227,0,0,1-.37,1.40828,1.14375,1.14375,0,0,1-1.00223.06078.8716.8716,0,0,1,.08266-1.30219l.15386-.12879c.34616-.30489.31389-.52364.19784-.65536-.31478-.35749-.91193-.18577-1.22041.086a1.37735,1.37735,0,0,0-.08013,1.93474A1.45474,1.45474,0,0,0,64.2082,36.92452ZM62.29733,34.899a.73534.73534,0,0,1,1.02457.14673c.09614.10912-.03184.22178-.12214.30134a.94371.94371,0,0,0-.1891,1.3558,2.17216,2.17216,0,0,1-.49228-.41492C62.21013,35.938,61.84209,35.3,62.29733,34.899Z"/><path class="cls-1" d="M68.65515,34.20774a1.04062,1.04062,0,0,0,.426-.57533l-.06023-.011c-.12445.35467-.28671.31317-.364.14448-.075-.16413-.30914-.66356-.62834-1.36108-.32117-.70211-.92453-.70725-1.50744-.33026-.585.37241-.66557.82283-.4653.93522.19364.10985.29354-.25012.60479-.42561.2448-.13962.35953-.08182.42076.028.16756.28173-.3539.8291-.499,1.0664a.90784.90784,0,0,0-.0713,1.02511.57753.57753,0,0,0,.7676.123,1.8608,1.8608,0,0,0,.86872-1.05363C68.26422,34.02826,68.36336,34.34127,68.65515,34.20774Zm-.9061.05625a.597.597,0,0,1-.80594.14267c-.21917-.214-.17141-.55557.06356-.994s.22768-.68314.12566-.846c-.13163-.21542-.43237-.14954-.7141.018-.05714.03171-.12721.04723-.11826-.01754a.68936.68936,0,0,1,.40287-.49314c.27608-.13183.63518-.07.9042.51806L68.114,33.7A2.28371,2.28371,0,0,1,67.74905,34.264Z"/><path class="cls-1" d="M71.92357,33.218a1.13585,1.13585,0,0,1-1.2087-.6091l-.05659.02852a1.23947,1.23947,0,0,0,1.28695.72942l.04466-.00649c.71089-.129.90961-.538.85535-.91014-.05559-.34657-.44055-.55392-.73434-.62256l-.53074-.13035c-.30437-.07215-.49128-.207-.53028-.43951a.55447.55447,0,0,1,.4947-.5687,1.00836,1.00836,0,0,1,.77919.20052,1.026,1.026,0,0,1,.21543.19153l.04387-.04693a1.17559,1.17559,0,0,0-1.15222-.46535l-.05957.0087a.81759.81759,0,0,0-.70006.89764.79484.79484,0,0,0,.5924.58752l.63155.16122c.27111.08715.54013.19486.58479.43154C72.51034,32.86383,72.33539,33.15791,71.92357,33.218Z"/><path class="cls-1" d="M77.82028,32.06669a1.331,1.331,0,0,0-1.1646-1.5244,1.476,1.476,0,0,0-1.63543,1.2707,1.35053,1.35053,0,0,0,1.15266,1.53792A1.47478,1.47478,0,0,0,77.82028,32.06669Zm-2.30587-.3114c.06156-.442.36174-1.25081,1.0272-1.158.71521.09973.88541.94878.78816,1.53773-.08125.51019-.36242,1.25578-1.028,1.163C75.59154,33.199,75.43261,32.34137,75.51441,31.75529Z"/><path class="cls-1" d="M80.36233,34.46966c-.09052-.05476-.2805-.16863-.226-.28153l.37445-.77676c.188-.34352,1.07851-1.10525,1.53918-.88312.298.14373.15373.5584-.125,1.13644l-.54224,1.12447c-.0545.1129-.24383.04385-.36109-.00155l-.02178.04515.998.48129.02177-.04517c-.09052-.05478-.2805-.16864-.226-.28155l.54-1.12c.318-.65934.60169-1.20156-.035-1.5086-.46066-.22213-1.32706.33966-1.65709.78165l.60313-1.25091-.70449-.33972-.02176.04517c.10642.068.28271.16413.22823.277L79.72527,33.99c-.05438.1129-.24371.04385-.361-.00157l-.02178.04517.998.48125Z"/><path class="cls-1" d="M86.08419,37.46l-.02675-.05218a1.22677,1.22677,0,0,1-1.43837-.226,1.1437,1.1437,0,0,1-.16158-.99085.87144.87144,0,0,1,1.30374-.04926l.14369.14006c.3382.31361.55261.2594.67187.13069.32384-.34926.09273-.926-.20866-1.20549a1.37747,1.37747,0,0,0-1.93286.11562,1.45463,1.45463,0,0,0-.02189,1.95569A1.47787,1.47787,0,0,0,86.08419,37.46Zm-1.20814-1.927c.31709-.34193.91458-.7725,1.35945-.36a.73517.73517,0,0,1-.04255,1.034c-.09882.10662-.22382-.00929-.31213-.0911a.94355.94355,0,0,0-1.36784-.05121A2.1749,2.1749,0,0,1,84.87605,35.533Z"/><path class="cls-1" d="M87.95857,41.67841c-.04255-.07382.00431-.153.0955-.20566L91.08884,39.72l-.39368-.68161-.04343.02506c.04961.11607.14125.29474.0327.35744l-1.96667,1.13592c.5229-.41784,1.00445-1.03758.72118-1.52817-.33357-.57745-1.12216-.46932-1.73005-.11826-.60345.34854-1.04909.93017-.75079,1.44682a1.159,1.159,0,0,0,1.17786.5356l-.28217.163c-.1954.11285-.36516.23987-.2373.46128a.97192.97192,0,0,0,.613.36968l.0053-.061A.409.409,0,0,1,87.95857,41.67841Zm-.69906-1.24053c-.20559-.356.10765-.78592.68514-1.11943.58422-.33167,1.108-.43731,1.35369-.01184.2257.39073-.44164,1.16992-.9757,1.47834l-.10423.06018A.95307.95307,0,0,1,87.25951,40.43788Z"/><path class="cls-1" d="M65.7478,62.15937l.0336-.03725-.57-.51363-.03361.03724c.05294.06115.22979.25434.0997.34633L63.69071,63.161c-.113.08044-.2468.10159-.29156.06132-.04841-.04367-.12512-.08583.01636-.37012l.60568-1.12152c.20943-.4121.18678-.64171.034-.77937-.149-.13428-.38717-.0722-.80782.23726l-.96476.70341c-.1092.08381-.24306.10495-.29147.06132-.04476-.04029-.12521-.08582.02-.36675l.93261-1.73145c.07758-.14606.28217.03151.34848.07775l.02686-.02979-.853-.7688-.0336.03725c.08343.10217.20115.24877.15.35793l-.91957,1.70948c-.25233.47468-.20779.71736-.055.855s.41259.08154.76495-.17465l.9305-.68034c.10244-.07635.25321-.18358.3425-.103.08578.07723.03714.236-.02442.34923l-.55052,1.0228c-.256.47132-.20767.71735-.05868.85165.15273.13762.41622.0849.76493-.17466l1.55619-1.14247C65.45645,61.9508,65.64081,62.08326,65.7478,62.15937Z"/><path class="cls-1" d="M67.12924,62.74655l-.68482-.37824-.02419.04391c.10246.07377.27078.18393.2101.29369l-1.13465,2.05446c-.0631.11414-.24348.02594-.36052-.0215l-.02421.04388.97008.53586.02431-.04391c-.085-.06408-.27321-.17955-.21022-.29367Z"/><path class="cls-1" d="M67.43937,61.69757a.3017.3017,0,0,0-.40883.1179.30089.30089,0,0,0,.52676.291A.30174.30174,0,0,0,67.43937,61.69757Z"/><path class="cls-1" d="M69.20611,62.9303l-.36031.12543-.68825.2945.35358.12825-.71465,1.97068a.53516.53516,0,0,0,.31775.77137,1.31359,1.31359,0,0,0,1.03452-.249l-.03216-.04368a.84583.84583,0,0,1-.7193.14459c-.25454-.09232-.20679-.34172-.135-.53972l.689-1.9.9052.32826.02221-.06128-.90519-.32826Z"/><path class="cls-1" d="M72.8249,67.02645l.18-1.29134c.09628-.69036.17231-1.27216-.48331-1.36356-.52644-.07342-1.18472.72592-1.375,1.2918l.35246-2.528-.77477-.108-.00686.04969c.122.03221.31931.06984.30207.194l-.47924,3.437c-.01736.12417-.21873.11635-.34429.109l-.007.04965,1.09761.153.007-.04966c-.10289-.02446-.31875-.0748-.3014-.199l.099-.71022c.08521-.6109.76936-1.52311,1.21632-1.46078.32781.04571.33213.48681.24891,1.04736L72.373,66.96345c-.018.12913-.21808.11136-.34441.109l-.00685.04965,1.09763.153.007-.04965C73.02406,67.196,72.80689,67.15559,72.8249,67.02645Z"/><path class="cls-1" d="M77.62874,66.67739,76.93951,63.077l-.76836.1471.0095.04925c.12589-.00879.3267-.02682.34936.0914l.65054,3.3984c.02366.12312-.16965.18054-.28989.21889l.00939.04927,1.08844-.20839-.00939-.04924C77.84326,66.78438,77.65239,66.80051,77.62874,66.67739Z"/><path class="cls-1" d="M79.61795,63.36784a1.47613,1.47613,0,0,0-.79434,1.91283,1.35069,1.35069,0,0,0,1.762.76795,1.47487,1.47487,0,0,0,.7982-1.93052A1.33118,1.33118,0,0,0,79.61795,63.36784ZM80.67158,65.939c-.66658.26469-1.22836-.40253-1.44677-.95253C79.06,64.57159,78.92143,63.72,79.546,63.472c.67122-.26658,1.23865.38764,1.445.94786C81.17236,64.90361,81.29615,65.69087,80.67158,65.939Z"/><path class="cls-1" d="M83.74206,61.31994c-.04255-.14786.10853-.29058.20658-.37781l-.02875-.041-.62811.44071.02884.04107c.07141-.03789.31854-.17458.35988-.01973l.57118,1.95775c.04378.14086.0356.20783-.04652.26545-.07793.05474-.13716.02277-.24614-.05394l-1.69688-1.20464c-.13439-.09557.09549-.25687.1554-.31117l-.02886-.04106-.96873.6798.02884.04107c.11826-.05851.28327-.13756.38242-.06618l1.70505,1.19887c.426.30147.57673.32429.74505.20619s.17308-.26846.03195-.75761Z"/><path class="cls-1" d="M87.32935,59.813a1.22691,1.22691,0,0,1-.21441,1.44025,1.14373,1.14373,0,0,1-.98964.16957.87153.87153,0,0,1-.05968-1.30344l.13881-.14478c.31092-.34081.255-.55476.12535-.673-.35191-.32108-.92676-.0853-1.20384.21845a1.37747,1.37747,0,0,0,.13107,1.932,1.45481,1.45481,0,0,0,1.95607.0062,1.4782,1.4782,0,0,0,.16823-1.67241Zm-1.86542,1.19646c-.34452-.3143-.77986-.9084-.37092-1.35661a.73521.73521,0,0,1,1.03438.03421c.10744.098-.00751.224-.08863.31286a.9437.9437,0,0,0-.04012,1.36835A2.16867,2.16867,0,0,1,85.46393,61.00947Z"/><circle class="cls-1" cx="90.41267" cy="48.94665" r="1.80768"/><circle class="cls-1" cx="57.81669" cy="48.94665" r="1.80768"/><path class="cls-2" d="M151.98148,50.91667H128.01759c-3.83954,0-8.09022.41636-11.17106-2.31139a4.09131,4.09131,0,0,0-5.21347-.24068c-.7362.63447-1.3753,1.43061-2.04889,2.1313-.63976.66547-1.8021,2.15353-2.65147.9659a6.49,6.49,0,0,1-.54523-2.33988q-.3493-1.83053-.69858-3.66107c-.09779-.51247-.26085-2.33087-1.1073-1.99769-.32251.12694-.38376.46412-.45924.75269L103.734,45.7006l-.904,3.45592c-.07418.28359-.07143.59-.30426.68291a3.21965,3.21965,0,0,1-1.52164-.062,3.35691,3.35691,0,0,1-.29912-1.015l-.52722-1.78907q-.47511-1.61224-.95023-3.2245c-.072-.24422-.11516-.587-.3898-.68494-.6875-.24524-.63391.86429-.68879,1.24771a11.34162,11.34162,0,0,1-3.00058,6.56222c-2.49352,2.45222-6.33559,3.00469-9.67079,2.45258A8.40193,8.40193,0,0,1,83.944,52.9135a18.61041,18.61041,0,0,0,.91133-2.00992,15.91428,15.91428,0,0,0,.579-6.76871,3.25923,3.25923,0,0,0-3.93349-3.15531,3.87252,3.87252,0,0,0-2.996,3.20105,10.22264,10.22264,0,0,0-.16916,1.87084c-.01207.28412-.00373.85513.01243,1.33435.00491.23969.00957.47826.011.71343a8.25883,8.25883,0,0,0,.35363,2.71008,9.38264,9.38264,0,0,0,1.86789,3.16035,8.99342,8.99342,0,0,1-7.33912,2.35939,11.53858,11.53858,0,0,1-6.27409-3.50279c.06254-.04668.12744-.09073.1897-.13772a8.50565,8.50565,0,0,0,2.56328-3.25569,7.07,7.07,0,0,0,.51133-2.92786,9.65585,9.65585,0,0,0-.24794-3.71364c-.87318-2.00639-3.65193-2.37577-5.27511-1.13261-1.98918,1.52351-1.6985,4.05714-1.679,6.28548a10.26123,10.26123,0,0,0,.31013,2.91592,5.59319,5.59319,0,0,0,.375.90577l-9.6018,6.62628L40.81231,67.57106,28.94006,75.7642c-1.45641,1.00509-2.96441,1.96746-4.41672,2.99232A130.50431,130.50431,0,0,1,38.59259,51.86287,198.74244,198.74244,0,0,1,58.91311,26.55324,239.7506,239.7506,0,0,1,76.58459,9.542q2.72142-2.3627,5.525-4.629A15.71466,15.71466,0,0,0,83.6388,3.70145a.64637.64637,0,0,0,.162-.25811.17461.17461,0,0,1,.02667.03936V3.319a3.16348,3.16348,0,0,0,.01166-.3193c.00782-.666.00664-1.33241.00257-1.99844-.001-.16273.08945-.78962-.062-.935-.16448-.15791-.85294.0134-1.086.034q-.59505.05259-1.18956.11136Q80.328.32792,79.15437.46884a103.788,103.788,0,0,0-31.746,9.00547A102.0861,102.0861,0,0,0,24.42608,24.37849,108.31962,108.31962,0,0,0,9.2947,40.30175a97.65132,97.65132,0,0,0-7.945,11.88617Q.8549,53.06826.38535,53.9625a4.01843,4.01843,0,0,0-.34309.66691,4.05211,4.05211,0,0,0-.01507,1.01374q-.0041.90071.00341,1.80148c.00145.14617.00057.28752.012.401l-.00034.082.0089-.01722c.03476.2065.13359.27688.42288.012.94084-.86165,1.8061-1.82206,2.71746-2.71565q2.08932-2.04859,4.231-4.04289c7.69386-7.16695,15.895-14.17967,25.09992-19.34139a47.11986,47.11986,0,0,1,6.41614-3.04178,8.70451,8.70451,0,0,0,.01649-1.6491,10.51833,10.51833,0,0,1-.01649-1.64911c-6.8102,2.56483-12.94006,6.90762-18.64572,11.34563A196.98279,196.98279,0,0,0,4.764,50.38172c-.2805.26972-.55538.54522-.83451.81636q.29175-.45483.58774-.90651A108.00024,108.00024,0,0,1,29.75658,23.39988a101.02146,101.02146,0,0,1,21.76691-12.449A104.47818,104.47818,0,0,1,79.53993,3.7247q-1.028.85975-2.04467,1.73277-6.07769,5.21841-11.78875,10.84567c-5.04053,4.95466-9.871,10.12608-14.4351,15.52343A183.55869,183.55869,0,0,0,36.83208,51.252a129.54475,129.54475,0,0,0-11.602,22.35015,56.52953,56.52953,0,0,0-2.12258,5.91033c-.02138.07949-.038.16052-.05166.2424a.10409.10409,0,0,1-.01718-.02918V79.882a12.18182,12.18182,0,0,0-.01649,1.49276,6.78707,6.78707,0,0,0,.03657,1.70686c.07177.02567.08343-.04459.13969-.05686.21009-.04581.50062-.34548.67482-.46571l1.32953-.91751q4.96224-3.42449,9.92448-6.849,6.85338-4.72959,13.70678-9.45918L61.20662,56.795c1.32308-.91307,2.6789-1.79791,4.00753-2.71524a17.1464,17.1464,0,0,0,3.31712,3.4257,9.3268,9.3268,0,0,0,8.91719,1.69711A11.32455,11.32455,0,0,0,82.303,55.458a9.82033,9.82033,0,0,0,5.09657,1.337c3.43686.07946,6.84755-1.00868,8.85113-3.94764a11.3941,11.3941,0,0,0,1.57533-3.603,15.45072,15.45072,0,0,0,.33964-1.75469c.04923-.36267.17133-1.67327.8349-1.01871a2.04957,2.04957,0,0,1,.30008.82423q.24726.83906.49454,1.67812.53574,1.818,1.0715,3.63606c.14707.499.04447.55308.613.54433a3.70932,3.70932,0,0,0,1.046-.01607c.20718-.08268.07915-.00435.18166-.21419a7.79281,7.79281,0,0,0,.3628-1.387q.25887-.98967.51775-1.97935l.45577-1.74243a2.35292,2.35292,0,0,1,.27615-.82565c.82812-1.11893,1.25,1.14651,1.34726,1.656q.37935,1.98813.75872,3.97625c.13286.69628.14385,2.09658.88524,2.45914,1.012.49488,2.08641-1.09208,2.72785-1.75931a7.49329,7.49329,0,0,1,2.70019-2.25383,4.10194,4.10194,0,0,1,2.98314.10737,12.759,12.759,0,0,1,2.02,1.46433,10.4498,10.4498,0,0,0,5.46367,1.55758c3.47776.157,6.98857.01837,10.46837.01837h18.30718C152.00572,54.21489,152.00662,50.91667,151.98148,50.91667Zm-88.931-5.23631c-.00926-.2352-.00567-.39436,0,0Zm.20391,1.36075a4.31592,4.31592,0,0,1,.64172-1.25706,3.96471,3.96471,0,0,1,1.92054-1.41818,3.46814,3.46814,0,0,1,4.00717,1.51166,7.21153,7.21153,0,0,1-.57317,1.14059,8.81882,8.81882,0,0,1-2.047,2.34c-.11026.08488-.23065.15918-.3451.23818l-1.67071,1.153c-.02487-.03342-.05106-.06637-.07568-.09987A10.199,10.199,0,0,1,63.25443,47.04111Zm15.33714.06975a4.67327,4.67327,0,0,1,.24088-.68669,3.6797,3.6797,0,0,1,1.35811-1.61944,3.4392,3.4392,0,0,1,4.64606.7227,3.069,3.069,0,0,1,.39368.78759A11.61127,11.61127,0,0,1,84.428,48.59a18.89182,18.89182,0,0,1-2.11842,3.51776A8.46435,8.46435,0,0,1,78.59157,47.11086Z"/><path class="cls-2" d="M29.71986,17.60218c-4.68216-4.13085,1.3147-5.61894,4.65789-7.2584,2.37-.97343,2.88158,1.97974,3.15024,3.78756l1.12842-.5326a10.522,10.522,0,0,0-.14787-2.22326C37.3109,5.16256,22.79559,13.6435,29.71986,17.60218Z"/></g></g></svg>